<svg id="Filled" height="512" viewBox="0 0 512 512" width="512" xmlns="http://www.w3.org/2000/svg"><path d="m89 24h152a24 24 0 0 1 24 24 24 24 0 0 1 -24 24h-152a0 0 0 0 1 0 0v-48a0 0 0 0 1 0 0z" fill="#eb423f"/><path d="m57 32h32v32h-32z" fill="#c7312e"/><path d="m177 72h48v48h-48z" fill="#e9eef2"/><path d="m137 96v8a48 48 0 0 1 -48 48 16 16 0 0 1 -16-16 16 16 0 0 1 16-16 16 16 0 0 0 16-16v-32h32z" fill="#c7312e"/><path d="m161 120h80v64h-80z" fill="#c7312e"/><path d="m145 200v8a32 32 0 0 1 -32 32h-16a32 32 0 0 0 -32 32v184a32 32 0 0 0 32 32h128a32 32 0 0 0 32-32v-256a32 32 0 0 0 -32-32h-48a32 32 0 0 0 -32 32z" fill="#eb423f"/><path d="m193 216v40a16 16 0 0 1 -16 16h-64a16 16 0 0 0 -16 16v152a16 16 0 0 0 16 16h96a16 16 0 0 0 16-16v-224a16 16 0 0 0 -16-16 16 16 0 0 0 -16 16z" fill="#e9eef2"/><path d="m393 56h-48v-24.865l18.94-6.314a16 16 0 0 1 10.12 0l18.94 6.314z" fill="#d46109"/><path d="m345 56h48v40h-48z" fill="#ed8424"/><path d="m409 488a32 32 0 0 0 32-32v-184c0-8-8-16-8-24s8-15.75 8-24c0-8-8-16-8-24s8-15.75 8-24v-16.02h-.04a71.98 71.98 0 1 0 -143.96 0v16.02c0 8.25 8 16 8 24s-8 16-8 24c0 8.25 8 16 8 24s-8 16-8 24v184a32 32 0 0 0 32 32z" fill="#ff8e26"/><path d="m369 120a40 40 0 0 1 40 40v8a16 16 0 0 1 -16 16h-48a16 16 0 0 1 -16-16v-8a40 40 0 0 1 40-40z" fill="#ffd33a"/><path d="m160 424h288v64h-288z" fill="#dadcde"/><path d="m168 376h272a16 16 0 0 1 16 16v32a0 0 0 0 1 0 0h-304a0 0 0 0 1 0 0v-32a16 16 0 0 1 16-16z" fill="#7e8589"/><path d="m392 192a24.027 24.027 0 0 0 24-24v-8a48 48 0 0 0 -96 0v8a24.027 24.027 0 0 0 24 24zm-56-24v-8a32 32 0 0 1 64 0v8a8.009 8.009 0 0 1 -8 8h-48a8.009 8.009 0 0 1 -8-8z"/><path d="m240 80a32 32 0 0 0 0-64h-152a8 8 0 0 0 -8 8h-24a8 8 0 0 0 -8 8v32a8 8 0 0 0 8 8h24a8 8 0 0 0 8 8h8v24a8.009 8.009 0 0 1 -8 8 24 24 0 0 0 0 48 56.063 56.063 0 0 0 56-56v-24h24v32h-8a8 8 0 0 0 -8 8v48h.028a39.964 39.964 0 0 0 -16.028 32v8a24.027 24.027 0 0 1 -24 24h-16a40.045 40.045 0 0 0 -40 40v184a40.045 40.045 0 0 0 40 40h352a8 8 0 0 0 8-8v-56a8 8 0 0 0 8-8v-32a24.039 24.039 0 0 0 -16-22.624v-97.376c0-5.889-2.574-11.036-4.845-15.578-1.555-3.103-3.155-6.311-3.155-8.422 0-2.067 1.575-5.192 3.1-8.214 2.3-4.559 4.9-9.727 4.9-15.786 0-5.889-2.574-11.036-4.845-15.578-1.555-3.103-3.155-6.311-3.155-8.422 0-2.067 1.575-5.192 3.1-8.214 2.3-4.559 4.9-9.727 4.9-15.786v-16.034a80.1 80.1 0 0 0 -48-73.266v-55.565a8 8 0 0 0 -5.47-7.59l-18.941-6.314a24.167 24.167 0 0 0 -15.178 0l-18.941 6.314a8 8 0 0 0 -5.47 7.59v55.565a80.1 80.1 0 0 0 -48 73.266v16.034c0 6.059 2.6 11.227 4.9 15.786 1.523 3.022 3.1 6.147 3.1 8.214 0 2.111-1.6 5.319-3.155 8.422-2.271 4.542-4.845 9.689-4.845 15.578 0 6.059 2.6 11.227 4.9 15.786 1.523 3.022 3.1 6.147 3.1 8.214 0 2.111-1.6 5.319-3.155 8.422-2.271 4.542-4.845 9.689-4.845 15.578v96h-24v-168a39.964 39.964 0 0 0 -16.028-32h.028v-48a8 8 0 0 0 -8-8h-8v-32zm-160-24h-16v-16h16zm48 48a40.045 40.045 0 0 1 -40 40 8 8 0 0 1 0-16 24.027 24.027 0 0 0 24-24v-24h16zm40 24h64v32.805a40.028 40.028 0 0 0 -8-.805h-48a40.028 40.028 0 0 0 -8 .805zm16-16v-32h32v32zm-32 336h-40a8.009 8.009 0 0 1 -8-8v-152a8.009 8.009 0 0 1 8-8h64a24.028 24.028 0 0 0 24-24v-40a8 8 0 0 1 16 0v152h-48a24.027 24.027 0 0 0 -24 24v32a8 8 0 0 0 8 8zm288 32h-16v-24a8 8 0 0 0 -16 0v24h-16v-24a8 8 0 0 0 -16 0v24h-16v-24a8 8 0 0 0 -16 0v24h-16v-24a8 8 0 0 0 -16 0v24h-16v-24a8 8 0 0 0 -16 0v24h-16v-24a8 8 0 0 0 -16 0v24h-16v-24a8 8 0 0 0 -16 0v24h-16v-24a8 8 0 0 0 -16 0v24h-16v-48h272zm-88-443.1 13.47-4.489a8.034 8.034 0 0 1 5.06 0l13.47 4.489v11.1h-32zm0 27.1h32v17.61a80.308 80.308 0 0 0 -32 0zm-48 208c0-2.111 1.6-5.319 3.155-8.422 2.271-4.542 4.845-9.689 4.845-15.578 0-5.871-2.555-10.941-4.81-15.415-1.568-3.112-3.19-6.33-3.19-8.585 0-2.111 1.6-5.319 3.155-8.422 2.271-4.542 4.845-9.689 4.845-15.578 0-5.871-2.555-10.941-4.81-15.415-1.568-3.112-3.19-6.33-3.19-8.585v-16a64 64 0 0 1 128-.54 7.869 7.869 0 0 0 0 1.075v15.465c0 2.255-1.622 5.473-3.19 8.585-2.255 4.474-4.81 9.544-4.81 15.415 0 5.889 2.574 11.036 4.845 15.578 1.555 3.103 3.155 6.311 3.155 8.422 0 2.255-1.622 5.473-3.19 8.585-2.255 4.474-4.81 9.544-4.81 15.415 0 5.889 2.574 11.036 4.845 15.578 1.555 3.103 3.155 6.311 3.155 8.422v96h-24v-72a8 8 0 0 0 -16 0v72h-16v-72a8 8 0 0 0 -16 0v72h-16v-72a8 8 0 0 0 -16 0v72h-24zm136 112a8.009 8.009 0 0 1 8 8v24h-288v-24a8.009 8.009 0 0 1 8-8zm-192-184v168h-16v-152a24 24 0 0 0 -48 0v40a8.009 8.009 0 0 1 -8 8h-64a24.028 24.028 0 0 0 -24 24v152a24.028 24.028 0 0 0 24 24h40v16h-56a24.027 24.027 0 0 1 -24-24v-184a24.027 24.027 0 0 1 24-24h16a39.8 39.8 0 0 0 23.974-8h24.026a8 8 0 0 0 0-16h-11.35a39.759 39.759 0 0 0 3.35-16h8a8 8 0 0 0 0-16h-6.624a24.039 24.039 0 0 1 22.624-16h48a24.027 24.027 0 0 1 24 24zm-152-136v-32h144a16 16 0 0 1 0 32z"/></svg>